<svg width="166" height="220" viewBox="0 0 166 220" fill="none" xmlns="http://www.w3.org/2000/svg">
<path fill-rule="evenodd" clip-rule="evenodd" d="M80.9249 20.8416C77.9657 17.8849 75.9629 14.2614 76.2975 10.2012C77.2618 -1.49736 96.3931 1.07618 100.115 6.98062C103.836 12.8851 103.394 27.8622 98.5842 28.9175C96.6661 29.3383 92.58 28.3074 88.4214 26.1737L91.0317 41.8931H75.6189L80.9249 20.8416Z" fill="#B28B67"/>
<path fill-rule="evenodd" clip-rule="evenodd" d="M93.3171 7.83694C91.2255 8.83283 89.737 10.699 87.9452 13.1468C87.5088 13.0008 87.0335 12.9206 86.5363 12.9206C84.4082 12.9206 82.6831 14.389 82.6831 16.2005C82.6831 17.1201 83.1277 17.9513 83.8438 18.5468C82.9523 19.618 81.9531 20.7371 80.8081 21.8918C76.5353 19.7097 73.3573 13.3499 77.437 7.21039C80.9471 -5.08751 100.837 2.54566 104.664 0.471569C105.5 4.93427 102.802 8.53263 93.3171 7.83694Z" fill="#191847"/>
<path fill-rule="evenodd" clip-rule="evenodd" d="M74.9982 89.3505L106.519 157.259L127.659 214.67H136.007L103.688 89.3505L74.9982 89.3505Z" fill="#997659"/>
<path fill-rule="evenodd" clip-rule="evenodd" d="M68.6511 89.3505C68.3155 113.214 63.4205 145.343 62.6385 146.83C62.1171 147.822 44.1188 160.433 8.64337 184.663L14.3931 189.901C56.2508 169.126 78.1481 157.353 80.0851 154.583C82.9905 150.426 92.4497 112.18 100.044 89.3505H68.6511Z" fill="#B28B67"/>
<path fill-rule="evenodd" clip-rule="evenodd" d="M7.87432 182.915C5.94328 183.496 4.61306 184.047 3.88365 184.568C2.99652 185.201 1.82598 186.252 0.372033 187.719C1.23558 188.595 8.99645 196.468 23.6546 211.338C26.6434 210.249 27.5811 208.976 26.4676 207.517C25.3541 206.059 24.4429 204.838 23.7338 203.854L18.6617 188.77C18.5641 188.48 18.2085 188.312 17.8675 188.395C17.8617 188.396 17.8559 188.398 17.8501 188.399L15.1436 189.13C13.2658 188.385 11.9497 187.63 11.1953 186.864C10.5823 186.243 10.0308 185.173 9.54075 183.656L9.54076 183.656C9.35271 183.074 8.64579 182.732 7.96181 182.892C7.93233 182.898 7.90315 182.906 7.87432 182.915Z" fill="#E4E4E4"/>
<path fill-rule="evenodd" clip-rule="evenodd" d="M124.241 212.02C123.523 213.653 123.163 214.874 123.163 215.685C123.163 216.67 123.356 218.109 123.742 220C125.086 220 137.159 220 159.963 220C160.905 217.351 160.361 215.921 158.333 215.71C156.305 215.499 154.621 215.308 153.279 215.138L136.444 208.749C136.12 208.626 135.74 208.75 135.596 209.026C135.594 209.031 135.591 209.035 135.589 209.04L134.507 211.275C132.629 212.02 131.104 212.393 129.93 212.393C128.976 212.393 127.659 212.065 125.979 211.41L125.979 211.41C125.334 211.158 124.572 211.399 124.276 211.948C124.263 211.972 124.252 211.996 124.241 212.02Z" fill="#E4E4E4"/>
<path fill-rule="evenodd" clip-rule="evenodd" d="M96.1909 208.757L135.882 205.09L106.466 89.3505H70.9164L96.1909 208.757Z" fill="#69A1AC"/>
<path fill-rule="evenodd" clip-rule="evenodd" d="M16.8533 176.214L42.8882 202.445C70.3101 176.951 86.2972 160.317 90.8494 152.541C95.4016 144.766 99.4938 123.702 103.126 89.3505H63.1035C61.1194 119.571 59.782 135.385 59.0913 136.791C58.4005 138.198 44.3212 151.338 16.8533 176.214Z" fill="#89C5CC"/>
<path fill-rule="evenodd" clip-rule="evenodd" d="M132.94 82.7426L151.814 98.3141C157.306 100.295 161.805 102.483 165.313 104.877C166.101 105.681 166.96 107.223 163.249 106.533C159.538 105.843 155.597 105.259 154.9 106.279C154.202 107.3 156.258 108.864 154.969 110.2C154.109 111.091 151.219 108.258 146.298 101.702L126.672 91.9158L132.94 82.7426ZM40.6488 68.6498L55.238 68.6961C44.1264 99.1426 38.228 115.084 37.5428 116.52C36.0012 119.751 39.2635 124.672 40.6587 127.317C36.1148 129.036 36.5989 122.668 30.867 124.923C25.6351 126.982 21.6552 130.712 15.6105 127.558C14.8673 127.17 14.053 125.71 16.0206 124.569C20.9227 121.726 27.987 116.75 28.9415 115.113C30.2431 112.879 34.1456 97.3918 40.6488 68.6498Z" fill="#B28B67"/>
<path fill-rule="evenodd" clip-rule="evenodd" d="M85.1047 33.6483L90.8659 32.8126C99.9415 59.9447 146.572 78.4391 149.434 88.5818C150.484 92.3014 147.319 94.1817 148.954 95.3146L141.465 99.9508C140.197 98.6995 137.491 100.988 131.84 99.3873C126.189 97.7862 85.1047 65.7751 85.1047 33.6483Z" fill="#DB2721"/>
<path fill-rule="evenodd" clip-rule="evenodd" d="M94.7958 37.2554C94.1316 73.1763 118.684 82.3392 113.215 96.7492C108.699 108.649 65.4718 121.441 57.9915 109.776C54.9636 105.055 53.5898 99.3444 53.434 93.1359C51.5222 97.9056 50.0102 102.012 48.8979 105.454C46.9791 111.393 39.5405 112.337 39.5405 114.625L29.7401 112.337C30.4049 109.229 25.7847 107.716 27.0235 100.772C32.574 69.6583 47.487 47.1052 71.7626 33.1123L72.0193 30.0077C72.1211 28.804 73.3477 27.8964 74.7623 27.978L92.8991 29.0506C94.3145 29.1324 95.3821 30.1768 95.2838 31.3816C95.2838 31.3822 95.2837 31.3829 95.2813 31.3834L94.7958 37.2554Z" fill="#FF4133"/>
</svg>
